# AST/ASF file generated using VICON BodyLanguage
# -----------------------------------------------
:version 1.10
:name VICON
:units
  mass 1.0
  length 0.45
  angle deg
:documentation
   .ast/.asf automatically generated from VICON data using
   VICON BodyBuilder and BodyLanguage model FoxedUp or BRILLIANT.MOD
:root
   order TX TY TZ RX RY RZ
   axis XYZ
   position 0 0 0  
   orientation 0 0 0 
:bonedata
  begin
     id 1 
     name lhipjoint
     direction 0.611804 -0.747784 0.257906 
     length 2.29243 
     axis 0 0 0  XYZ
  end
  begin
     id 2 
     name lfemur
     direction 0.34202 -0.939693 0  
     length 7.31159  
     axis 0 0 20  XYZ
    dof rx ry rz
    limits (-160.0 20.0)
           (-70.0 70.0)
           (-60.0 70.0)
  end
  begin
     id 3 
     name ltibia
     direction 0.34202 -0.939693 0   
     length 7.33391   
     axis 0 0 20   XYZ
    dof rx
    limits (-10.0 170.0)
  end
  begin
     id 4 
     name lfoot
     direction 0.122263 -0.335914 0.933924   
     length 1.76083   
     axis -90 7.62852e-016 20   XYZ
    dof rx rz
    limits (-45.0 90.0)
           (-70.0 20.0)
  end
  begin
     id 5 
     name ltoes
     direction 1.53533e-011 -4.2177e-011 1   
     length 0.879206   
     axis -90 7.62852e-016 20   XYZ
    dof rx
    limits (-90.0 20.0)
  end
  begin
     id 6 
     name rhipjoint
     direction -0.646469 -0.721248 0.248754   
     length 2.37677  
     axis 0 0 0  XYZ 
  end
  begin
     id 7 
     name rfemur
     direction -0.34202 -0.939693 0   
     length 7.18623   
     axis 0 0 -20   XYZ
    dof rx ry rz
    limits (-160.0 20.0)
           (-70.0 70.0)
           (-70.0 60.0)
  end
  begin
     id 8 
     name rtibia
     direction -0.34202 -0.939693 0   
     length 7.36567   
     axis 0 0 -20   XYZ
    dof rx
    limits (-10.0 170.0)
 end
 begin
     id 9 
     name rfoot
     direction -0.126681 -0.348054 0.928876   
     length 1.71902  
     axis -90 -7.62852e-016 -20   XYZ
    dof rx rz
    limits (-45.0 90.0)
           (-20.0 70.0)
  end
  begin
     id 10 
     name rtoes
     direction -1.53551e-011 -4.21898e-011 1   
     length 0.857792   
     axis -90 -7.62852e-016 -20   XYZ
    dof rx
    limits (-90.0 20.0)
  end
  begin
     id 11 
     name lowerback
     direction 0.0106509 0.999778 0.0181844   
     length 2.07668   
     axis 0 0 0   XYZ
    dof rx ry rz
    limits (-20.0 45.0)
           (-30.0 30.0)
           (-30.0 30.0)
  end
  begin
     id 12 
     name upperback
     direction -0.00456018 0.999989 -0.000590935   
     length 2.08011   
     axis 0 0 0   XYZ
    dof rx ry rz
    limits (-20.0 45.0)
           (-30.0 30.0)
           (-30.0 30.0)
  end
  begin
     id 13 
     name thorax
     direction -0.00910382 0.999916 -0.00923765   
     length 2.07397   
     axis 0 0 0   XYZ
    dof rx ry rz
    limits (-20.0 45.0)
           (-30.0 30.0)
           (-30.0 30.0)
  end
  begin
     id 14 
     name lowerneck
     direction 0.00171967 0.99778 0.0665733   
     length 1.67556   
     axis 0 0 0   XYZ
    dof rx ry rz
    limits (-20.0 45.0)
           (-30.0 30.0)
           (-30.0 30.0)
  end
  begin
     id 15 
     name upperneck
     direction -0.0143166 0.991302 -0.130828   
     length 1.68462   
     axis 0 0 0   XYZ
    dof rx ry rz
    limits (-20.0 45.0)
           (-30.0 30.0)
           (-30.0 30.0)
  end
  begin
     id 16
     name head
     direction -0.00606378 0.998665 -0.0512995  
     length 1.69269  
     axis 0 0 0   XYZ
    dof rx ry rz
    limits (-20.0 45.0)
           (-30.0 30.0)
           (-30.0 30.0)
  end
  begin
     id 17 
     name lclavicle
     direction 0.9638 0.179341 0.197297  
     length 4.12888  
     axis 0 0 0   XYZ
    dof ry rz
    limits (-20.0 10.0)
           (0.0 20.0)
  end
  begin
     id 18 
     name lhumerus
     direction 1 -4.48972e-011 -2.47351e-027   
     length 5.01834   
     axis -180 -30 -90   XYZ
    dof rx ry rz
    limits (-60.0 90.0)
           (-90.0 90.0)
           (-90.0 90.0)
  end
  begin
     id 19
     name lradius
     direction 1 -4.48965e-011 1.51591e-026   
     length 3.4869   
     axis -180 -30 -90   XYZ
    dof rx
    limits (-10.0 170.0)
  end
  begin
     id 20
     name lwrist
     direction 1 -4.48957e-011 2.70032e-026   
     length 1.74345   
     axis -1.81515e-014 90 90   XYZ
    dof ry
    limits (-180.0 0.0)
 end
  begin
     id 21 
     name lhand
     direction 1 -4.48951e-011 5.40064e-026   
     length 0.76799   
     axis -3.44607e-014 90 90   XYZ
    dof rx rz
    limits (-90.0 90.0)
           (-45.0 45.0)
  end
  begin
     id 22 
     name lfingers
     direction 1 -4.48971e-011 1.08013e-025   
     length 0.619174   
     axis -6.89214e-014 90 90   XYZ
    dof rx
    limits (0.0 90.0)
  end
  begin
     id 23
     name lthumb
     direction 0.707107 -6.34931e-011 0.707107   
     length 0.889013   
     axis -90 45 2.85299e-015   XYZ
    dof rx rz
    limits (-45.0 45.0)
           (-45.0 45.0)
  end
  begin
     id 24 
     name rclavicle
     direction -0.961409 0.252588 0.109054   
     length 4.04305  
     axis 0 0 0   XYZ 
    dof ry rz
    limits (-10.0 20.0)
           (-20.0 0.0)
  end
  begin
     id 25 
     name rhumerus
     direction -1 -4.4897e-011 1.33872e-017  
     length 4.70164   
     axis -180 30 90   XYZ
    dof rx ry rz
    limits (-90.0 60.0)
           (-90.0 90.0)
           (-90.0 90.0)
  end
  begin
     id 26 
     name rradius
     direction -1 -4.48954e-011 1.83844e-026   
     length 3.49911   
     axis -180 30 90   XYZ
    dof rx
    limits (-10.0 170.0)
  end
  begin
     id 27 
     name rwrist
     direction -1 -4.49008e-011 2.70032e-026   
     length 1.74955   
     axis -1.81515e-014 -90 -90   XYZ
    dof ry
    limits (-180.0 0.0)
  end
  begin
     id 28
     name rhand
     direction -1 -4.48916e-011 5.40064e-026   
     length 0.739335   
     axis -3.44607e-014 -90 -90   XYZ
    dof rx rz
    limits (-90.0 90.0)
           (-45.0 45.0)
  end
  begin
     id 29
     name rfingers
     direction -1 -4.48987e-011 1.08013e-025   
     length 0.596071   
     axis -6.89214e-014 -90 -90   XYZ
    dof rx
    limits (0.0 90.0)
  end
  begin
     id 30
     name rthumb
     direction -0.707107 -6.34935e-011 0.707107   
     length 0.855843   
     axis -90 -45 -2.85299e-015   XYZ
    dof rx rz
    limits (-45.0 45.0)
           (-45.0 45.0)
  end
:hierarchy
  begin
    root lhipjoint rhipjoint lowerback
    lhipjoint lfemur
    lfemur ltibia
    ltibia lfoot
    lfoot ltoes
    rhipjoint rfemur
    rfemur rtibia
    rtibia rfoot
    rfoot rtoes
    lowerback upperback
    upperback thorax
    thorax lowerneck lclavicle rclavicle
    lowerneck upperneck
    upperneck head
    lclavicle lhumerus
    lhumerus lradius
    lradius lwrist
    lwrist lhand lthumb
    lhand lfingers
    rclavicle rhumerus
    rhumerus rradius
    rradius rwrist
    rwrist rhand rthumb
    rhand rfingers
  end

#!OML:ASF I:\salsa\salsa 7_09\Patient 1\Session 1\dancermale.ASF
:FULLY-SPECIFIED
:DEGREES
1122
root 13.6537 17.0471 -9.20846 183.22 194.606 183.422
lowerback 0.407266 -2.48183 -3.79139
upperback -0.068496 -3.34011 -2.39065
thorax -0.225 -1.66789 -0.312804
lowerneck -8.49484 -4.40569 -2.66599
upperneck 39.1489 -5.84375 -1.83624
head 15.0933 -3.30809 -1.21072
rclavicle -2.3556e-014 1.74931e-014
rhumerus -4.42361 -24.3438 -9.13677
rradius 80.3661
rwrist -2.24175
rhand 2.48606 2.74053
rfingers 7.12502
rthumb 27.9693 -25.1958
lclavicle -2.3556e-014 1.74931e-014
lhumerus -44.99 -25.669 103.25
lradius 81.4997
lwrist 18.3817
lhand -8.94439 53.8485
lfingers 7.12502
lthumb 17 1163.12
rfemur -47.1069 -0.922231 17.6723
rtibia 66.7754
rfoot -4.31649 -14.3024
rtoes 17.5667
lfemur -9.75244 1.35688 -22.4021
ltibia 29.6138
lfoot 334.471 17.1935
ltoes -10.041
1123
root 13.6422 17.0217 -9.1814 183.173 195.09 183.543
lowerback 0.507055 -2.78744 -4.12807
upperback -0.171646 -3.75946 -2.33467
thorax -0.352341 -1.87378 -0.0604698
lowerneck -8.71629 -4.06227 -3.10686
upperneck 38.8997 -5.1613 -1.96607
head 15.0339 -3.1027 -1.08744
rclavicle 4.64162e-014 1.03368e-014
rhumerus -3.54921 -24.7203 -9.30821
rradius 83.7916
rwrist -5.83618
rhand 4.66452 1.20658
rfingers 7.12502
rthumb 30.0499 -26.3716
lclavicle 4.64162e-014 1.03368e-014
lhumerus -44.6845 -25.8038 103.667
lradius 81.7369
lwrist 18.7191
lhand -9.3657 53.9198
lfingers 7.12502
lthumb 16.5944 1163.23
rfemur -47.8295 -1.75244 18.3155
rtibia 68.5784
rfoot -3.72488 -14.4761
rtoes 17.099
lfemur -9.73873 1.63782 -22.5325
ltibia 29.8395
lfoot 334.392 17.3772
ltoes -9.13623
1124
root 13.6245 17.0064 -9.14556 182.946 195.639 183.752
lowerback 0.82068 -2.88888 -4.27232
upperback -0.312733 -3.92514 -2.5798
thorax -0.676015 -1.95066 -0.208281
lowerneck -8.8595 -3.93389 -3.18486
upperneck 38.7855 -4.94466 -1.97745
head 15.0126 -3.02809 -1.04871
rclavicle -4.9398e-014 -1.98785e-014
rhumerus -2.9716 -25.1459 -9.63034
rradius 87.2922
rwrist -9.62754
rhand 6.6092 -0.908804
rfingers 7.12502
rthumb 31.9036 -28.134
lclavicle -4.9398e-014 -1.98785e-014
lhumerus -44.6203 -26.5552 103.893
lradius 82.2068
lwrist 20.0751
lhand -9.71297 53.8383
lfingers 7.12502
lthumb 16.26 1163.18
rfemur -48.1494 -2.64814 18.7602
rtibia 70.3075
rfoot -3.22987 -15.0452
rtoes 18.4025
lfemur -9.27777 1.87105 -22.7592
ltibia 29.6346
lfoot 334.421 17.6286
ltoes -8.85525
1125
root 13.6043 16.9972 -9.10517 182.942 196.121 184
lowerback 0.873393 -2.95845 -4.41858
upperback -0.518111 -4.03677 -2.79752
thorax -0.919711 -2.00106 -0.339157
lowerneck -8.89177 -3.94494 -3.36018
upperneck 38.5945 -4.95483 -1.88619
head 14.9371 -3.0496 -0.977737
rclavicle -6.66426e-014 -1.66979e-014
rhumerus -1.88314 -25.6454 -10.0644
rradius 90.6
rwrist -13.349
rhand 8.20491 -3.30706
rfingers 7.12502
rthumb 33.4218 -30.2173
lclavicle -6.66426e-014 -1.66979e-014
lhumerus -44.396 -27.3977 104.218
lradius 82.4588
lwrist 21.3469
lhand -9.74509 53.7867
lfingers 7.12502
lthumb 16.2291 1163.13
rfemur -48.5646 -3.78448 19.0586
rtibia 72.0411
rfoot -2.92354 -15.8543
rtoes 20.3951
lfemur -8.98102 1.68122 -23.1016
ltibia 29.3107
lfoot 334.402 17.9329
ltoes -7.83807
1126
root 13.5771 16.9922 -9.05613 183.075 196.676 184.123
lowerback 0.669183 -3.00906 -4.45564
upperback -0.715445 -4.10322 -2.89676
thorax -1.01144 -2.03166 -0.424743
lowerneck -8.8371 -3.99166 -3.63474
upperneck 38.1893 -4.96616 -1.85732
head 14.74 -3.09151 -0.905742
rclavicle -2.58172e-014 -3.18055e-014
rhumerus 0.0482386 -26.1082 -10.7898
rradius 93.5602
rwrist -16.5916
rhand 9.33269 -5.64822
rfingers 7.12502
rthumb 34.4931 -32.3211
lclavicle -2.58172e-014 -3.18055e-014
lhumerus -44.0675 -28.2436 104.723
lradius 82.477
lwrist 21.8501
lhand -9.96498 54.0034
lfingers 7.12502
lthumb 16.0174 1163.36
rfemur -48.8923 -4.94209 19.4635
rtibia 73.6413
rfoot -2.49232 -16.8762
rtoes 21.2176
lfemur -8.69499 1.23773 -23.3386
ltibia 28.8634
lfoot 334.475 18.4787
ltoes -6.8801
1127
root 13.546 16.9922 -9.00006 183.148 197.331 184.108
lowerback 0.456343 -3.00565 -4.24056
upperback -0.867631 -4.09276 -3.015
thorax -1.07247 -2.02735 -0.67148
lowerneck -8.76186 -4.10134 -3.69939
upperneck 37.705 -5.05692 -2.00619
head 14.4888 -3.15971 -0.951622
rclavicle 2.12203e-014 -1.19271e-014
rhumerus 2.63145 -26.4088 -11.915
rradius 96.0872
rwrist -19.1179
rhand 9.75985 -7.79114
rfingers 7.12502
rthumb 34.8985 -34.3708
lclavicle 2.12203e-014 -1.19271e-014
lhumerus -43.7649 -29.2321 105.185
lradius 82.4824
lwrist 22.0734
lhand -9.89265 53.9816
lfingers 7.12502
lthumb 16.087 1163.33
rfemur -48.835 -6.14727 19.9845
rtibia 74.9607
rfoot -2.01122 -17.8075
rtoes 21.6764
lfemur -8.158 0.792131 -23.4384
ltibia 28.2173
lfoot 334.738 19.184
ltoes -6.45245
1128
root 13.5075 16.9973 -8.94915 183.343 197.815 184.158
lowerback 0.250987 -3.03182 -3.98601
upperback -1.12184 -4.13018 -3.23312
thorax -1.25224 -2.04667 -1.03807
lowerneck -8.72131 -4.31747 -3.65477
upperneck 37.3633 -5.35992 -2.0986
head 14.3149 -3.29837 -1.02925
rclavicle -1.90833e-014 7.95139e-016
rhumerus 5.63808 -26.4506 -13.3727
rradius 98.2061
rwrist -21.2142
rhand 9.78959 -9.79585
rfingers 7.12502
rthumb 34.9267 -36.369
lclavicle -1.90833e-014 7.95139e-016
lhumerus -43.6368 -30.4164 105.58
lradius 82.5737
lwrist 22.2326
lhand -9.16637 53.638
lfingers 7.12502
lthumb 16.7863 1162.93
rfemur -48.7527 -7.6702 20.4062
rtibia 76.0945
rfoot -1.66637 -18.3893
rtoes 24.7976
lfemur -7.79051 0.28574 -23.5622
ltibia 27.5808
lfoot 335.06 19.6944
ltoes -5.93084
